<?xml version="1.0" standalone="no"?>
<!DOCTYPE svg PUBLIC "-//W3C//DTD SVG 20010904//EN"
 "http://www.w3.org/TR/2001/REC-SVG-20010904/DTD/svg10.dtd">
<svg version="1.0" xmlns="http://www.w3.org/2000/svg"
 width="40" height="40" viewBox="0 0 40 40"
 preserveAspectRatio="xMidYMid meet">

<g transform="translate(-3,43) scale(0.0045,-0.0045)"
fill="#FFFFFF" stroke="none">
<path d="M4935 9123 c-273 -24 -517 -68 -740 -133 -405 -119 -727 -309 -1043
-615 -426 -412 -682 -908 -777 -1501 -22 -137 -31 -507 -16 -686 7 -79 26
-242 43 -363 26 -193 29 -238 24 -370 -6 -163 -28 -288 -70 -399 -33 -86 -34
-142 -3 -186 63 -94 70 -94 802 -95 542 0 624 2 740 19 360 51 582 179 748
428 77 115 117 211 167 398 125 467 207 639 396 820 179 172 419 286 810 386
509 129 1274 215 1557 174 137 -20 252 -80 252 -131 l0 -24 -235 -12 c-1030
-51 -1781 -211 -2145 -456 -84 -56 -183 -159 -237 -247 -80 -128 -110 -213
-218 -605 -45 -164 -109 -311 -187 -427 -59 -89 -192 -230 -267 -283 -30 -22
-56 -43 -56 -46 0 -3 23 -43 50 -89 393 -653 1261 -1086 2120 -1056 246 8 465
45 655 109 l70 24 0 339 c0 325 1 342 23 419 47 162 124 297 231 409 190 198
440 299 904 367 111 16 215 34 231 39 61 21 81 62 55 113 -52 98 -296 291
-519 410 -47 25 -159 76 -250 113 -293 118 -299 122 -380 284 -27 54 -71 127
-98 162 l-49 65 114 12 c303 33 517 106 573 196 40 64 17 185 -50 273 -53 69
-164 170 -257 233 -56 38 -113 84 -127 102 -13 18 -49 84 -78 147 -70 147
-190 355 -286 495 -219 320 -480 579 -772 767 -433 278 -987 433 -1530 426
-74 -1 -153 -3 -175 -5z m1617 -3006 c92 -54 141 -138 141 -242 0 -224 -270
-346 -441 -199 -124 106 -123 303 1 409 81 69 212 83 299 32z m-2626 -236 c48
-22 106 -77 130 -124 10 -17 19 -64 22 -102 4 -58 0 -80 -18 -123 -27 -62 -89
-123 -153 -147 -57 -22 -155 -17 -211 10 -198 95 -200 382 -4 479 66 33 170
36 234 7z"/>
<path d="M3980 4600 c-125 -18 -353 -31 -646 -37 l-310 -6 -17 -88 c-60 -319
-285 -768 -582 -1163 -249 -332 -563 -653 -885 -905 -74 -58 -156 -127 -182
-152 -44 -43 -48 -50 -48 -95 0 -100 52 -145 241 -210 205 -70 243 -86 549
-234 328 -159 490 -228 692 -298 1252 -433 2629 -334 3510 251 147 98 230 165
352 285 296 290 493 620 622 1040 44 144 96 384 85 395 -5 5 -44 -1 -87 -12
-830 -208 -1796 -45 -2459 417 -303 211 -578 509 -709 770 -29 57 -26 56 -126
42z m1603 -1477 c-2 -109 -41 -252 -107 -387 -222 -458 -706 -801 -1299 -921
-292 -59 -694 -49 -1011 25 -98 23 -319 95 -356 117 -17 9 -18 12 -5 8 110
-35 630 -57 841 -35 560 56 1051 264 1426 602 150 135 263 284 374 490 116
215 140 232 137 101z"/>
</g>
</svg>




